<svg width="7" height="8" viewBox="0 0 7 8" fill="none" xmlns="http://www.w3.org/2000/svg">
<path d="M6.84543 2.47133L5.54259 1.13375C5.34385 0.933117 5.01262 0.933117 4.83596 1.13375L3.33438 2.64968H0.419558C0.176656 2.64968 0 2.85031 0 3.07324V7.57643C0 7.79936 0.176656 8 0.419558 8H4.88013C5.10095 8 5.29968 7.82165 5.29968 7.57643V4.78981L6.84543 3.207C7.04416 3.00637 7.04416 2.67197 6.84543 2.47133ZM4.61514 7.33121H0.662461V3.31847H2.67192L2.18612 3.80891C2.09779 3.89809 2.03155 4.00955 2.00946 4.12102L1.61199 5.7707C1.56782 5.94904 1.61199 6.12739 1.74448 6.26114C1.83281 6.37261 1.9653 6.41719 2.09779 6.41719C2.14196 6.41719 2.16404 6.41719 2.2082 6.41719L3.88644 6.03821C4.01893 6.01592 4.12934 5.94904 4.21767 5.85987L4.63722 5.4363V7.33121H4.61514ZM5.2776 3.83121L4.61514 4.5L3.73186 5.39172L2.29653 5.70382L2.62776 4.27707L3.57729 3.31847L4.23975 2.64968L5.16719 1.71337L6.24921 2.82802L5.2776 3.83121Z" fill="#6FE793"/>
</svg>
